<?xml version="1.0" encoding="UTF-8"?>
<!DOCTYPE svg PUBLIC "-//W3C//DTD SVG 1.1//EN" "http://www.w3.org/Graphics/SVG/1.1/DTD/svg11.dtd">
<svg xmlns="http://www.w3.org/2000/svg" version="1.1" width="147px" height="147px" style="shape-rendering:geometricPrecision; text-rendering:geometricPrecision; image-rendering:optimizeQuality; fill-rule:evenodd; clip-rule:evenodd" xmlns:xlink="http://www.w3.org/1999/xlink">
<g><path style="opacity:0.094" fill="#dbdbdb" d="M 85.5,6.5 C 83.4944,4.82669 81.4944,3.16002 79.5,1.5C 78.1508,1.84572 76.8175,2.17905 75.5,2.5C 80.5762,-0.970128 83.9095,0.363205 85.5,6.5 Z"/></g>
<g><path style="opacity:0.898" fill="#494330" d="M 85.5,6.5 C 85.6602,8.19919 85.4935,9.86586 85,11.5C 79.6272,15.4364 77.4605,20.7697 78.5,27.5C 77.8365,29.0419 77.1698,30.7086 76.5,32.5C 75.8933,32.3764 75.56,32.0431 75.5,31.5C 76.1667,31.5 76.5,31.1667 76.5,30.5C 75.6327,23.9138 76.966,17.9138 80.5,12.5C 82.5969,11.1214 82.9302,9.45474 81.5,7.5C 81.2131,5.87929 80.2131,4.87929 78.5,4.5C 68.2579,11.258 64.5912,20.258 67.5,31.5C 66.791,32.404 65.791,32.7373 64.5,32.5C 64.6655,28.4862 64.4988,24.4862 64,20.5C 63.8091,22.7078 63.3091,24.7078 62.5,26.5C 61.9711,21.6764 63.1378,17.3431 66,13.5C 69.0024,9.6662 72.1691,5.99953 75.5,2.5C 76.8175,2.17905 78.1508,1.84572 79.5,1.5C 81.4944,3.16002 83.4944,4.82669 85.5,6.5 Z"/></g>
<g><path style="opacity:0.996" fill="#a1a649" d="M 81.5,7.5 C 82.9302,9.45474 82.5969,11.1214 80.5,12.5C 79.7611,12.369 79.0944,12.5357 78.5,13C 76.369,15.448 74.369,17.948 72.5,20.5C 72.1667,19.8333 71.8333,19.1667 71.5,18.5C 72.762,15.978 73.4287,13.3113 73.5,10.5C 74.9616,9.54227 76.2949,8.37561 77.5,7C 78.9285,6.42094 80.2618,6.58761 81.5,7.5 Z"/></g>
<g><path style="opacity:0.031" fill="#d7d6d6" d="M 85.5,6.5 C 86.339,7.64115 87.0057,8.97448 87.5,10.5C 83.1118,14.5617 80.4452,19.5617 79.5,25.5C 79.9569,26.2975 80.6236,26.6309 81.5,26.5C 80.791,27.404 79.791,27.7373 78.5,27.5C 77.4605,20.7697 79.6272,15.4364 85,11.5C 85.4935,9.86586 85.6602,8.19919 85.5,6.5 Z"/></g>
<g><path style="opacity:0.141" fill="#d4d4d3" d="M 75.5,2.5 C 72.1691,5.99953 69.0024,9.6662 66,13.5C 63.1378,17.3431 61.9711,21.6764 62.5,26.5C 56.3456,26.1004 50.3456,26.7671 44.5,28.5C 45.347,27.0337 46.6803,26.2004 48.5,26C 52.8546,24.6544 57.188,24.321 61.5,25C 61.9212,16.9854 65.2545,10.1521 71.5,4.5C 72.6223,3.36977 73.9557,2.70311 75.5,2.5 Z"/></g>
<g><path style="opacity:0.996" fill="#8c9022" d="M 73.5,10.5 C 73.4287,13.3113 72.762,15.978 71.5,18.5C 71.8333,19.1667 72.1667,19.8333 72.5,20.5C 74.369,17.948 76.369,15.448 78.5,13C 79.0944,12.5357 79.7611,12.369 80.5,12.5C 76.966,17.9138 75.6327,23.9138 76.5,30.5C 69.4236,29.5777 66.9236,25.5777 69,18.5C 70.2373,15.5519 71.7373,12.8852 73.5,10.5 Z"/></g>
<g><path style="opacity:0.996" fill="#686913" d="M 81.5,7.5 C 80.2618,6.58761 78.9285,6.42094 77.5,7C 76.2949,8.37561 74.9616,9.54227 73.5,10.5C 71.7373,12.8852 70.2373,15.5519 69,18.5C 66.9236,25.5777 69.4236,29.5777 76.5,30.5C 76.5,31.1667 76.1667,31.5 75.5,31.5C 72.8333,31.5 70.1667,31.5 67.5,31.5C 64.5912,20.258 68.2579,11.258 78.5,4.5C 80.2131,4.87929 81.2131,5.87929 81.5,7.5 Z"/></g>
<g><path style="opacity:0.757" fill="#6a5c50" d="M 81.5,26.5 C 86.1785,26.3342 90.8452,26.5008 95.5,27C 96.056,27.3826 96.3893,27.8826 96.5,28.5C 91.1667,28.5 85.8333,28.5 80.5,28.5C 79.5084,28.6716 78.8417,28.3382 78.5,27.5C 79.791,27.7373 80.791,27.404 81.5,26.5 Z"/></g>
<g><path style="opacity:1" fill="#d3801a" d="M 51.5,28.5 C 55.1667,28.5 58.8333,28.5 62.5,28.5C 62.7845,30.4147 62.4511,32.0813 61.5,33.5C 61.7678,31.901 61.4345,30.5676 60.5,29.5C 57.4816,29.3354 54.4816,29.502 51.5,30C 52.566,31.159 52.2327,31.9924 50.5,32.5C 50.0269,31.0937 49.0269,30.427 47.5,30.5C 48.5137,29.3263 49.847,28.6596 51.5,28.5 Z"/></g>
<g><path style="opacity:1" fill="#fb9810" d="M 94.5,30.5 C 92.7645,35.0218 89.4311,36.6885 84.5,35.5C 82.9731,35.573 81.9731,34.9063 81.5,33.5C 81.5106,31.9826 82.1772,30.8159 83.5,30C 87.2211,29.3219 90.8878,29.4886 94.5,30.5 Z"/></g>
<g><path style="opacity:1" fill="#fe9a0d" d="M 60.5,29.5 C 58.2459,34.645 54.9126,35.645 50.5,32.5C 52.2327,31.9924 52.566,31.159 51.5,30C 54.4816,29.502 57.4816,29.3354 60.5,29.5 Z"/></g>
<g><path style="opacity:1" fill="#412f19" d="M 67.5,31.5 C 70.1667,31.5 72.8333,31.5 75.5,31.5C 75.56,32.0431 75.8933,32.3764 76.5,32.5C 77.1698,30.7086 77.8365,29.0419 78.5,27.5C 78.8417,28.3382 79.5084,28.6716 80.5,28.5C 78.9766,30.5857 79.31,32.2524 81.5,33.5C 81.9731,34.9063 82.9731,35.573 84.5,35.5C 84.8333,36.1667 85.1667,36.8333 85.5,37.5C 85.5,38.1667 85.1667,38.5 84.5,38.5C 75.1994,31.5351 66.1994,31.8684 57.5,39.5C 57.1667,38.8333 56.8333,38.1667 56.5,37.5C 58.3885,36.396 60.0552,35.0627 61.5,33.5C 62.4511,32.0813 62.7845,30.4147 62.5,28.5C 58.8333,28.5 55.1667,28.5 51.5,28.5C 55.1667,27.8333 58.8333,27.1667 62.5,26.5C 63.3091,24.7078 63.8091,22.7078 64,20.5C 64.4988,24.4862 64.6655,28.4862 64.5,32.5C 65.791,32.7373 66.791,32.404 67.5,31.5 Z"/></g>
<g><path style="opacity:1" fill="#d26f0e" d="M 80.5,28.5 C 85.8333,28.5 91.1667,28.5 96.5,28.5C 96.8333,29.1667 97.1667,29.8333 97.5,30.5C 96.5,30.5 95.5,30.5 94.5,30.5C 90.8878,29.4886 87.2211,29.3219 83.5,30C 82.1772,30.8159 81.5106,31.9826 81.5,33.5C 79.31,32.2524 78.9766,30.5857 80.5,28.5 Z"/></g>
<g><path style="opacity:0.188" fill="#d9d8d8" d="M 44.5,28.5 C 44.0472,29.4584 43.3805,30.2917 42.5,31C 38.1222,31.6786 33.7889,32.5119 29.5,33.5C 34.3079,31.3777 39.3079,29.711 44.5,28.5 Z"/></g>
<g><path style="opacity:0.988" fill="#a65a11" d="M 47.5,30.5 C 47.5,31.8333 47.5,33.1667 47.5,34.5C 45.8333,34.5 44.1667,34.5 42.5,34.5C 39.8333,34.5 37.1667,34.5 34.5,34.5C 38.3123,33.6762 42.3123,33.1762 46.5,33C 45.1175,31.5391 45.4508,30.7058 47.5,30.5 Z"/></g>
<g><path style="opacity:1" fill="#e77914" d="M 84.5,38.5 C 88.7404,44.8862 91.4071,51.8862 92.5,59.5C 90.5045,54.8812 88.5045,50.2145 86.5,45.5C 82.6163,37.5581 76.283,34.3914 67.5,36C 63.6891,37.0699 60.3557,38.9033 57.5,41.5C 57.5,40.8333 57.5,40.1667 57.5,39.5C 66.1994,31.8684 75.1994,31.5351 84.5,38.5 Z"/></g>
<g><path style="opacity:1" fill="#feb665" d="M 86.5,45.5 C 84.7162,45.1075 83.0495,44.4408 81.5,43.5C 70.9567,40.0162 62.1234,42.6829 55,51.5C 54.51,50.2068 54.3433,48.8734 54.5,47.5C 55.5294,45.4832 56.5294,43.4832 57.5,41.5C 60.3557,38.9033 63.6891,37.0699 67.5,36C 76.283,34.3914 82.6163,37.5581 86.5,45.5 Z"/></g>
<g><path style="opacity:1" fill="#feb565" d="M 34.5,40.5 C 32.5,42.8333 30.5,45.1667 28.5,47.5C 27.5084,47.3284 26.8417,47.6618 26.5,48.5C 25.6236,48.6309 24.9569,48.2975 24.5,47.5C 25.371,43.0743 27.7044,39.741 31.5,37.5C 32.8549,38.1882 33.8549,39.1882 34.5,40.5 Z"/></g>
<g><path style="opacity:0.247" fill="#d5d5d4" d="M 81.5,26.5 C 89.552,24.3898 97.2187,25.5565 104.5,30C 118.553,31.3505 128.886,38.1838 135.5,50.5C 130.986,44.8219 125.653,39.9886 119.5,36C 111.958,32.9099 104.291,30.4099 96.5,28.5C 96.3893,27.8826 96.056,27.3826 95.5,27C 90.8452,26.5008 86.1785,26.3342 81.5,26.5 Z"/></g>
<g><path style="opacity:0.898" fill="#4d4236" d="M 62.5,26.5 C 58.8333,27.1667 55.1667,27.8333 51.5,28.5C 49.847,28.6596 48.5137,29.3263 47.5,30.5C 45.4508,30.7058 45.1175,31.5391 46.5,33C 42.3123,33.1762 38.3123,33.6762 34.5,34.5C 21.1867,39.4753 12.8534,48.8086 9.5,62.5C 8.83333,62.5 8.5,62.8333 8.5,63.5C 5.63393,72.3615 4.96726,81.3615 6.5,90.5C 6.9897,103.492 11.9897,114.325 21.5,123C 23.0779,124.094 24.7446,124.928 26.5,125.5C 26.8333,126.167 27.1667,126.833 27.5,127.5C 16.6069,122.594 9.60685,114.26 6.5,102.5C 6.43487,99.5718 5.7682,96.9052 4.5,94.5C 4.5,86.1667 4.5,77.8333 4.5,69.5C 7.38504,53.7341 15.7184,41.7341 29.5,33.5C 33.7889,32.5119 38.1222,31.6786 42.5,31C 43.3805,30.2917 44.0472,29.4584 44.5,28.5C 50.3456,26.7671 56.3456,26.1004 62.5,26.5 Z"/></g>
<g><path style="opacity:1" fill="#fd990c" d="M 98.5,33.5 C 108.641,32.5456 117.307,35.5456 124.5,42.5C 124.196,43.1499 123.863,43.8165 123.5,44.5C 131.383,52.8356 135.05,62.8356 134.5,74.5C 133.928,83.908 132.762,93.2413 131,102.5C 128.431,107.3 125.598,111.967 122.5,116.5C 122.167,116.167 121.833,115.833 121.5,115.5C 129.84,93.2912 129.34,71.2912 120,49.5C 118.625,47.0228 116.791,46.1894 114.5,47C 112.324,42.7899 109.157,39.6232 105,37.5C 104.383,36.5509 104.549,35.7175 105.5,35C 102.964,34.8138 100.631,34.3138 98.5,33.5 Z"/></g>
<g><path style="opacity:1" fill="#f39614" d="M 34.5,34.5 C 37.1667,34.5 39.8333,34.5 42.5,34.5C 40.7317,37.5899 38.0651,39.5899 34.5,40.5C 33.8549,39.1882 32.8549,38.1882 31.5,37.5C 27.7044,39.741 25.371,43.0743 24.5,47.5C 24.9569,48.2975 25.6236,48.6309 26.5,48.5C 23.7719,51.899 21.4385,55.5657 19.5,59.5C 19.1667,59.5 18.8333,59.5 18.5,59.5C 18.0766,58.7354 17.7432,57.9021 17.5,57C 18.8713,54.6813 19.5379,52.1813 19.5,49.5C 18.1667,49.5 16.8333,49.5 15.5,49.5C 16.3029,53.1693 15.1362,55.836 12,57.5C 11.6264,59.4913 10.793,61.158 9.5,62.5C 12.8534,48.8086 21.1867,39.4753 34.5,34.5 Z"/></g>
<g><path style="opacity:1" fill="#fc9a11" d="M 51.5,47.5 C 50.3485,51.1044 49.3485,54.771 48.5,58.5C 48.8333,59.1667 49.1667,59.8333 49.5,60.5C 51.0257,56.021 52.6924,51.6877 54.5,47.5C 54.3433,48.8734 54.51,50.2068 55,51.5C 62.1234,42.6829 70.9567,40.0162 81.5,43.5C 79.1305,43.1489 76.7972,42.9822 74.5,43C 75.4056,45.4471 76.2389,47.9471 77,50.5C 78.3988,51.2266 79.8988,51.7266 81.5,52C 79.75,53.7542 79.0833,55.9208 79.5,58.5C 84.1099,59.1096 86.7765,61.7763 87.5,66.5C 85.1312,70.9922 84.4645,75.6589 85.5,80.5C 84.5,80.5 83.5,80.5 82.5,80.5C 82.33,81.8221 82.6634,82.9887 83.5,84C 80.3733,85.6498 80.04,87.4831 82.5,89.5C 80.3153,91.9475 77.982,94.4475 75.5,97C 69.1275,98.4823 65.1275,95.9823 63.5,89.5C 63.1667,90 62.8333,90.5 62.5,91C 63.3195,92.8003 63.9862,94.6336 64.5,96.5C 63.2502,96.4226 62.4169,95.756 62,94.5C 61.6667,94.8333 61.3333,95.1667 61,95.5C 57.8155,89.4133 59.6488,86.2466 66.5,86C 65.5,85.8333 64.5,85.6667 63.5,85.5C 61.7956,86.0681 60.2956,86.0681 59,85.5C 57.7163,86.5719 57.3829,87.9052 58,89.5C 57.3333,90.1667 56.6667,90.8333 56,91.5C 54.1598,90.1669 53.6598,90.3335 54.5,92C 53.8095,93.0674 53.3095,94.2341 53,95.5C 52.6174,94.944 52.1174,94.6107 51.5,94.5C 50.4206,92.457 48.754,91.1237 46.5,90.5C 48.7854,89.5213 50.452,87.8547 51.5,85.5C 53.7146,80.0267 54.0479,74.36 52.5,68.5C 50.2107,65.5419 47.2107,63.8752 43.5,63.5C 40.8984,63.4672 38.8984,64.4672 37.5,66.5C 36.0937,66.9731 35.427,67.9731 35.5,69.5C 34.5655,70.5676 34.2322,71.901 34.5,73.5C 33.3709,75.6282 33.2042,77.9615 34,80.5C 34.2004,82.3197 35.0337,83.653 36.5,84.5C 36.5394,85.5832 36.8728,86.5832 37.5,87.5C 35.187,88.2733 32.8537,88.9399 30.5,89.5C 29.5059,84.544 29.1725,79.544 29.5,74.5C 31.2046,63.7137 34.8713,53.7137 40.5,44.5C 42.5904,41.1252 45.5904,39.9586 49.5,41C 51.25,42.7542 51.9167,44.9208 51.5,47.5 Z"/></g>
<g><path style="opacity:1" fill="#fb7703" d="M 60.5,29.5 C 61.4345,30.5676 61.7678,31.901 61.5,33.5C 60.0552,35.0627 58.3885,36.396 56.5,37.5C 48.1538,34.6247 41.3204,36.6247 36,43.5C 20.0862,63.6097 16.0862,85.9431 24,110.5C 26.9479,118.779 32.1146,125.279 39.5,130C 38.9056,130.464 38.2389,130.631 37.5,130.5C 36.8333,130.5 36.1667,130.5 35.5,130.5C 33.5,129.5 31.5,128.5 29.5,127.5C 29.0269,126.094 28.0269,125.427 26.5,125.5C 23.6926,120.559 20.8593,115.559 18,110.5C 13.7069,98.5268 12.3735,86.1935 14,73.5C 15.2592,68.6746 16.7592,64.0079 18.5,59.5C 18.8333,59.5 19.1667,59.5 19.5,59.5C 19.3932,61.3786 19.8932,61.7119 21,60.5C 23.5117,56.1392 26.0117,51.8059 28.5,47.5C 30.5,45.1667 32.5,42.8333 34.5,40.5C 38.0651,39.5899 40.7317,37.5899 42.5,34.5C 44.1667,34.5 45.8333,34.5 47.5,34.5C 47.5,33.1667 47.5,31.8333 47.5,30.5C 49.0269,30.427 50.0269,31.0937 50.5,32.5C 54.9126,35.645 58.2459,34.645 60.5,29.5 Z"/></g>
<g><path style="opacity:1" fill="#fc990c" d="M 95.5,38.5 C 95.3398,40.1992 95.5065,41.8659 96,43.5C 99.0418,46.7106 102.209,49.7106 105.5,52.5C 105.833,51.8333 106.167,51.1667 106.5,50.5C 105.692,46.8946 104.359,43.5613 102.5,40.5C 119.411,56.0747 125.911,75.408 122,98.5C 120.226,108.379 116.06,117.046 109.5,124.5C 103.981,126.296 98.3142,127.296 92.5,127.5C 92.7038,124.482 93.0371,121.482 93.5,118.5C 96.0917,112.548 97.425,106.214 97.5,99.5C 103.621,101.236 108.954,99.9029 113.5,95.5C 115.522,93.5807 115.856,91.4141 114.5,89C 111.445,88.3658 108.445,88.5325 105.5,89.5C 101.779,89.3685 98.4461,90.3685 95.5,92.5C 95.5,91.1667 95.5,89.8333 95.5,88.5C 93.712,88.7852 92.0453,88.4519 90.5,87.5C 85.9663,81.4722 85.2997,74.9722 88.5,68C 89.448,67.5172 90.448,67.3505 91.5,67.5C 91.2053,65.2646 91.5386,63.2646 92.5,61.5C 92.2322,63.099 92.5655,64.4324 93.5,65.5C 92.8902,66.391 92.5569,67.391 92.5,68.5C 88.9365,75.8698 90.2699,82.2031 96.5,87.5C 98.9664,88.6341 101.633,88.8007 104.5,88C 106.751,87.2525 108.084,85.7525 108.5,83.5C 109.234,82.2921 109.567,80.9587 109.5,79.5C 110.629,77.3718 110.796,75.0385 110,72.5C 109.8,70.6803 108.966,69.347 107.5,68.5C 105.526,64.2069 102.193,62.5403 97.5,63.5C 96.3443,61.1761 95.3443,58.8428 94.5,56.5C 94.233,54.0347 93.5664,51.7014 92.5,49.5C 92.3354,46.4816 92.502,43.4816 93,40.5C 93.7083,39.6195 94.5416,38.9528 95.5,38.5 Z"/></g>
<g><path style="opacity:1" fill="#d45a09" d="M 28.5,47.5 C 26.0117,51.8059 23.5117,56.1392 21,60.5C 19.8932,61.7119 19.3932,61.3786 19.5,59.5C 21.4385,55.5657 23.7719,51.899 26.5,48.5C 26.8417,47.6618 27.5084,47.3284 28.5,47.5 Z"/></g>
<g><path style="opacity:1" fill="#d85c0c" d="M 56.5,37.5 C 56.8333,38.1667 57.1667,38.8333 57.5,39.5C 57.5,40.1667 57.5,40.8333 57.5,41.5C 56.5294,43.4832 55.5294,45.4832 54.5,47.5C 52.6924,51.6877 51.0257,56.021 49.5,60.5C 49.1667,59.8333 48.8333,59.1667 48.5,58.5C 49.3485,54.771 50.3485,51.1044 51.5,47.5C 52.7874,44.9252 54.1207,42.2585 55.5,39.5C 51.5411,38.3401 47.5411,38.1735 43.5,39C 38.5036,42.8291 34.837,47.6624 32.5,53.5C 31.8826,53.6107 31.3826,53.944 31,54.5C 29.6769,59.2852 28.1769,63.9519 26.5,68.5C 25.8423,69.3984 25.1757,70.3984 24.5,71.5C 23.3343,82.1511 23.1676,92.8177 24,103.5C 24.5662,105.723 25.3995,107.723 26.5,109.5C 29.3519,114.05 32.0186,118.716 34.5,123.5C 35.1667,124.833 36.1667,125.833 37.5,126.5C 39.5,128.167 41.5,129.833 43.5,131.5C 41.2646,131.795 39.2646,131.461 37.5,130.5C 38.2389,130.631 38.9056,130.464 39.5,130C 32.1146,125.279 26.9479,118.779 24,110.5C 16.0862,85.9431 20.0862,63.6097 36,43.5C 41.3204,36.6247 48.1538,34.6247 56.5,37.5 Z"/></g>
<g><path style="opacity:1" fill="#fb7705" d="M 51.5,47.5 C 51.9167,44.9208 51.25,42.7542 49.5,41C 45.5904,39.9586 42.5904,41.1252 40.5,44.5C 37.1285,46.9361 34.4619,49.9361 32.5,53.5C 34.837,47.6624 38.5036,42.8291 43.5,39C 47.5411,38.1735 51.5411,38.3401 55.5,39.5C 54.1207,42.2585 52.7874,44.9252 51.5,47.5 Z"/></g>
<g><path style="opacity:1" fill="#feb564" d="M 40.5,44.5 C 34.8713,53.7137 31.2046,63.7137 29.5,74.5C 28.8345,78.1515 28.5012,81.9848 28.5,86C 28.3703,92.3992 29.037,98.5658 30.5,104.5C 31.0926,110.944 33.0926,116.944 36.5,122.5C 36.0431,123.298 35.3764,123.631 34.5,123.5C 32.0186,118.716 29.3519,114.05 26.5,109.5C 23.8333,95.8333 23.8333,82.1667 26.5,68.5C 28.1769,63.9519 29.6769,59.2852 31,54.5C 31.3826,53.944 31.8826,53.6107 32.5,53.5C 34.4619,49.9361 37.1285,46.9361 40.5,44.5 Z"/></g>
<g><path style="opacity:1" fill="#f57604" d="M 94.5,30.5 C 95.5,30.5 96.5,30.5 97.5,30.5C 99.7957,30.8041 100.129,31.8041 98.5,33.5C 100.631,34.3138 102.964,34.8138 105.5,35C 104.549,35.7175 104.383,36.5509 105,37.5C 109.157,39.6232 112.324,42.7899 114.5,47C 116.791,46.1894 118.625,47.0228 120,49.5C 129.34,71.2912 129.84,93.2912 121.5,115.5C 121.833,115.833 122.167,116.167 122.5,116.5C 125.598,111.967 128.431,107.3 131,102.5C 132.762,93.2413 133.928,83.908 134.5,74.5C 135.05,62.8356 131.383,52.8356 123.5,44.5C 123.863,43.8165 124.196,43.1499 124.5,42.5C 131.535,48.5538 136.035,56.2204 138,65.5C 139.557,75.1055 139.891,84.7722 139,94.5C 136.113,111.635 126.613,123.302 110.5,129.5C 109.833,129.5 109.167,129.5 108.5,129.5C 107.761,129.631 107.094,129.464 106.5,129C 115.081,122.952 120.581,114.786 123,104.5C 128.445,78.6637 121.945,56.497 103.5,38C 97.5626,36.1718 91.5626,36.0052 85.5,37.5C 85.1667,36.8333 84.8333,36.1667 84.5,35.5C 89.4311,36.6885 92.7645,35.0218 94.5,30.5 Z"/></g>
<g><path style="opacity:0.314" fill="#d5d5d4" d="M 29.5,33.5 C 15.7184,41.7341 7.38504,53.7341 4.5,69.5C 4.5,68.5 4.5,67.5 4.5,66.5C 6.18571,55.3262 11.519,45.8262 20.5,38C 23.2857,35.9404 26.2857,34.4404 29.5,33.5 Z"/></g>
<g><path style="opacity:1" fill="#f77805" d="M 94.5,56.5 C 95.3443,58.8428 96.3443,61.1761 97.5,63.5C 96.8333,63.5 96.5,63.8333 96.5,64.5C 95.391,64.5569 94.391,64.8902 93.5,65.5C 92.5655,64.4324 92.2322,63.099 92.5,61.5C 92.5,60.8333 92.5,60.1667 92.5,59.5C 94.0481,59.1788 94.7148,58.1788 94.5,56.5 Z"/></g>
<g><path style="opacity:1" fill="#282118" d="M 51.5,85.5 C 46.2553,89.6855 41.2553,89.3522 36.5,84.5C 35.0807,80.9852 34.414,77.3186 34.5,73.5C 34.2322,71.901 34.5655,70.5676 35.5,69.5C 36.9063,69.0269 37.573,68.0269 37.5,66.5C 38.8984,64.4672 40.8984,63.4672 43.5,63.5C 47.2107,63.8752 50.2107,65.5419 52.5,68.5C 54.0479,74.36 53.7146,80.0267 51.5,85.5 Z"/></g>
<g><path style="opacity:1" fill="#4d3f25" d="M 96.5,64.5 C 97.8333,65.1667 99.1667,65.8333 100.5,66.5C 98.8333,66.5 97.1667,66.5 95.5,66.5C 95.3253,68.6208 95.6586,70.6208 96.5,72.5C 94.8829,71.4107 94.0496,69.744 94,67.5C 93.6174,68.056 93.1174,68.3893 92.5,68.5C 92.5569,67.391 92.8902,66.391 93.5,65.5C 94.391,64.8902 95.391,64.5569 96.5,64.5 Z"/></g>
<g><path style="opacity:1" fill="#231e18" d="M 97.5,63.5 C 102.193,62.5403 105.526,64.2069 107.5,68.5C 108.919,72.0148 109.586,75.6814 109.5,79.5C 108.778,79.9175 108.278,80.5842 108,81.5C 107.722,80.5842 107.222,79.9175 106.5,79.5C 105.5,79.5 104.5,79.5 103.5,79.5C 103.5,80.5 103.5,81.5 103.5,82.5C 104.5,82.5 105.5,82.5 106.5,82.5C 106.5,83.1667 106.5,83.8333 106.5,84.5C 105.942,85.7899 104.942,86.6232 103.5,87C 101.19,87.4966 98.8568,87.6633 96.5,87.5C 90.2699,82.2031 88.9365,75.8698 92.5,68.5C 93.1174,68.3893 93.6174,68.056 94,67.5C 94.0496,69.744 94.8829,71.4107 96.5,72.5C 101.252,72.6586 102.586,70.6586 100.5,66.5C 99.1667,65.8333 97.8333,65.1667 96.5,64.5C 96.5,63.8333 96.8333,63.5 97.5,63.5 Z"/></g>
<g><path style="opacity:1" fill="#e8e7e5" d="M 44.5,71.5 C 43.1667,71.5 41.8333,71.5 40.5,71.5C 40.5,70.1667 40.5,68.8333 40.5,67.5C 41.9187,66.5489 43.5853,66.2155 45.5,66.5C 45.7845,68.4147 45.4511,70.0813 44.5,71.5 Z"/></g>
<g><path style="opacity:1" fill="#d8d8d4" d="M 100.5,66.5 C 102.586,70.6586 101.252,72.6586 96.5,72.5C 95.6586,70.6208 95.3253,68.6208 95.5,66.5C 97.1667,66.5 98.8333,66.5 100.5,66.5 Z"/></g>
<g><path style="opacity:0.992" fill="#794d17" d="M 37.5,66.5 C 37.573,68.0269 36.9063,69.0269 35.5,69.5C 35.427,67.9731 36.0937,66.9731 37.5,66.5 Z"/></g>
<g><path style="opacity:1" fill="#9d9c8f" d="M 40.5,67.5 C 40.5,68.8333 40.5,70.1667 40.5,71.5C 41.8333,71.5 43.1667,71.5 44.5,71.5C 45.4511,70.0813 45.7845,68.4147 45.5,66.5C 43.5853,66.2155 41.9187,66.5489 40.5,67.5 Z"/></g>
<g><path style="opacity:1" fill="#d05209" d="M 108.5,129.5 C 106.485,130.924 104.152,131.59 101.5,131.5C 104.167,129.167 106.833,126.833 109.5,124.5C 116.06,117.046 120.226,108.379 122,98.5C 125.911,75.408 119.411,56.0747 102.5,40.5C 101.5,40.1667 100.833,39.5 100.5,38.5C 96.1458,37.0327 91.8125,37.366 87.5,39.5C 89.7454,42.6572 91.4121,45.9906 92.5,49.5C 93.5664,51.7014 94.233,54.0347 94.5,56.5C 94.7148,58.1788 94.0481,59.1788 92.5,59.5C 91.4071,51.8862 88.7404,44.8862 84.5,38.5C 85.1667,38.5 85.5,38.1667 85.5,37.5C 91.5626,36.0052 97.5626,36.1718 103.5,38C 121.945,56.497 128.445,78.6637 123,104.5C 120.581,114.786 115.081,122.952 106.5,129C 107.094,129.464 107.761,129.631 108.5,129.5 Z"/></g>
<g><path style="opacity:1" fill="#feb767" d="M 95.5,38.5 C 97.1667,38.5 98.8333,38.5 100.5,38.5C 100.833,39.5 101.5,40.1667 102.5,40.5C 104.359,43.5613 105.692,46.8946 106.5,50.5C 106.167,51.1667 105.833,51.8333 105.5,52.5C 102.209,49.7106 99.0418,46.7106 96,43.5C 95.5065,41.8659 95.3398,40.1992 95.5,38.5 Z"/></g>
<g><path style="opacity:1" fill="#f87905" d="M 100.5,38.5 C 98.8333,38.5 97.1667,38.5 95.5,38.5C 94.5416,38.9528 93.7083,39.6195 93,40.5C 92.502,43.4816 92.3354,46.4816 92.5,49.5C 91.4121,45.9906 89.7454,42.6572 87.5,39.5C 91.8125,37.366 96.1458,37.0327 100.5,38.5 Z"/></g>
<g><path style="opacity:1" fill="#a56815" d="M 8.5,63.5 C 7.12362,72.4355 6.45696,81.4355 6.5,90.5C 4.96726,81.3615 5.63393,72.3615 8.5,63.5 Z"/></g>
<g><path style="opacity:0.996" fill="#a96a14" d="M 34.5,73.5 C 34.414,77.3186 35.0807,80.9852 36.5,84.5C 35.0337,83.653 34.2004,82.3197 34,80.5C 33.2042,77.9615 33.3709,75.6282 34.5,73.5 Z"/></g>
<g><path style="opacity:1" fill="#955f15" d="M 107.5,68.5 C 108.966,69.347 109.8,70.6803 110,72.5C 110.796,75.0385 110.629,77.3718 109.5,79.5C 109.586,75.6814 108.919,72.0148 107.5,68.5 Z"/></g>
<g><path style="opacity:0.059" fill="#dcdbdb" d="M 4.5,66.5 C 4.5,67.5 4.5,68.5 4.5,69.5C 4.5,77.8333 4.5,86.1667 4.5,94.5C 4.5,95.8333 4.5,97.1667 4.5,98.5C 2.55651,97.9217 2.22318,96.9217 3.5,95.5C 2.86867,91.9656 2.202,88.4656 1.5,85C 2.03672,80.1182 2.53672,74.6182 3,68.5C 3.27842,67.5842 3.77842,66.9175 4.5,66.5 Z"/></g>
<g><path style="opacity:1" fill="#bf7713" d="M 47.5,79.5 C 48.5,79.5 49.5,79.5 50.5,79.5C 50.5,80.5 50.5,81.5 50.5,82.5C 49.5,82.5 48.5,82.5 47.5,82.5C 47.5,81.5 47.5,80.5 47.5,79.5 Z"/></g>
<g><path style="opacity:1" fill="#c67b12" d="M 106.5,79.5 C 106.5,80.5 106.5,81.5 106.5,82.5C 105.5,82.5 104.5,82.5 103.5,82.5C 103.5,81.5 103.5,80.5 103.5,79.5C 104.5,79.5 105.5,79.5 106.5,79.5 Z"/></g>
<g><path style="opacity:0.996" fill="#553917" d="M 106.5,79.5 C 107.222,79.9175 107.722,80.5842 108,81.5C 108.278,80.5842 108.778,79.9175 109.5,79.5C 109.567,80.9587 109.234,82.2921 108.5,83.5C 107.833,83.8333 107.167,84.1667 106.5,84.5C 106.5,83.8333 106.5,83.1667 106.5,82.5C 106.5,81.5 106.5,80.5 106.5,79.5 Z"/></g>
<g><path style="opacity:1" fill="#fb9e41" d="M 26.5,68.5 C 23.8333,82.1667 23.8333,95.8333 26.5,109.5C 25.3995,107.723 24.5662,105.723 24,103.5C 23.1676,92.8177 23.3343,82.1511 24.5,71.5C 25.1757,70.3984 25.8423,69.3984 26.5,68.5 Z"/></g>
<g><path style="opacity:1" fill="#f69e2e" d="M 29.5,74.5 C 29.1725,79.544 29.5059,84.544 30.5,89.5C 32.8537,88.9399 35.187,88.2733 37.5,87.5C 36.8728,86.5832 36.5394,85.5832 36.5,84.5C 41.2553,89.3522 46.2553,89.6855 51.5,85.5C 50.452,87.8547 48.7854,89.5213 46.5,90.5C 44.5648,89.8505 42.5648,89.5172 40.5,89.5C 37.8127,89.3359 35.146,89.5026 32.5,90C 31.4639,91.7755 31.4639,93.6089 32.5,95.5C 31.5416,95.0472 30.7083,94.3805 30,93.5C 29.8333,94 29.6667,94.5 29.5,95C 30.3672,98.1052 30.7006,101.272 30.5,104.5C 29.037,98.5658 28.3703,92.3992 28.5,86C 28.5012,81.9848 28.8345,78.1515 29.5,74.5 Z"/></g>
<g><path style="opacity:1" fill="#ad6b14" d="M 108.5,83.5 C 108.084,85.7525 106.751,87.2525 104.5,88C 101.633,88.8007 98.9664,88.6341 96.5,87.5C 98.8568,87.6633 101.19,87.4966 103.5,87C 104.942,86.6232 105.942,85.7899 106.5,84.5C 107.167,84.1667 107.833,83.8333 108.5,83.5 Z"/></g>
<g><path style="opacity:1" fill="#feb37a" d="M 40.5,89.5 C 42.0808,91.1417 42.7475,93.1417 42.5,95.5C 39.1667,95.5 35.8333,95.5 32.5,95.5C 31.4639,93.6089 31.4639,91.7755 32.5,90C 35.146,89.5026 37.8127,89.3359 40.5,89.5 Z"/></g>
<g><path style="opacity:1" fill="#fe9657" d="M 40.5,89.5 C 42.5648,89.5172 44.5648,89.8505 46.5,90.5C 48.754,91.1237 50.4206,92.457 51.5,94.5C 51.7035,96.3904 51.0368,97.8904 49.5,99C 42.9228,101.662 37.2562,100.495 32.5,95.5C 35.8333,95.5 39.1667,95.5 42.5,95.5C 42.7475,93.1417 42.0808,91.1417 40.5,89.5 Z"/></g>
<g><path style="opacity:1" fill="#fe9658" d="M 105.5,89.5 C 103.576,91.0902 103.243,92.9235 104.5,95C 107.482,95.498 110.482,95.6646 113.5,95.5C 108.954,99.9029 103.621,101.236 97.5,99.5C 96.8333,99.1667 96.1667,98.8333 95.5,98.5C 94.1667,96.5 94.1667,94.5 95.5,92.5C 98.4461,90.3685 101.779,89.3685 105.5,89.5 Z"/></g>
<g><path style="opacity:1" fill="#feb478" d="M 113.5,95.5 C 110.482,95.6646 107.482,95.498 104.5,95C 103.243,92.9235 103.576,91.0902 105.5,89.5C 108.445,88.5325 111.445,88.3658 114.5,89C 115.856,91.4141 115.522,93.5807 113.5,95.5 Z"/></g>
<g><path style="opacity:1" fill="#fe9b0e" d="M 81.5,43.5 C 83.0495,44.4408 84.7162,45.1075 86.5,45.5C 88.5045,50.2145 90.5045,54.8812 92.5,59.5C 92.5,60.1667 92.5,60.8333 92.5,61.5C 91.5386,63.2646 91.2053,65.2646 91.5,67.5C 90.448,67.3505 89.448,67.5172 88.5,68C 85.2997,74.9722 85.9663,81.4722 90.5,87.5C 92.0453,88.4519 93.712,88.7852 95.5,88.5C 95.5,89.8333 95.5,91.1667 95.5,92.5C 94.1667,94.5 94.1667,96.5 95.5,98.5C 94.0543,104.274 93.3877,110.274 93.5,116.5C 92.8333,116.5 92.1667,116.5 91.5,116.5C 90.8333,118.167 90.1667,119.833 89.5,121.5C 77.3972,127.466 65.7306,126.799 54.5,119.5C 54.1667,118.833 53.8333,118.167 53.5,117.5C 49.9877,113.816 47.4877,109.483 46,104.5C 45.3589,108.155 45.8589,111.655 47.5,115C 48.5398,118.024 50.2065,120.524 52.5,122.5C 52.7394,124.467 52.4061,126.301 51.5,128C 46.6475,128.882 41.9808,128.382 37.5,126.5C 36.1667,125.833 35.1667,124.833 34.5,123.5C 35.3764,123.631 36.0431,123.298 36.5,122.5C 33.0926,116.944 31.0926,110.944 30.5,104.5C 30.7006,101.272 30.3672,98.1052 29.5,95C 29.6667,94.5 29.8333,94 30,93.5C 30.7083,94.3805 31.5416,95.0472 32.5,95.5C 37.2562,100.495 42.9228,101.662 49.5,99C 51.0368,97.8904 51.7035,96.3904 51.5,94.5C 52.1174,94.6107 52.6174,94.944 53,95.5C 53.3095,94.2341 53.8095,93.0674 54.5,92C 53.6598,90.3335 54.1598,90.1669 56,91.5C 56.6667,90.8333 57.3333,90.1667 58,89.5C 57.3829,87.9052 57.7163,86.5719 59,85.5C 60.2956,86.0681 61.7956,86.0681 63.5,85.5C 64.5,85.6667 65.5,85.8333 66.5,86C 59.6488,86.2466 57.8155,89.4133 61,95.5C 61.3333,95.1667 61.6667,94.8333 62,94.5C 62.4169,95.756 63.2502,96.4226 64.5,96.5C 70.6015,100.847 76.1015,100.18 81,94.5C 82.0086,92.9751 82.5086,91.3084 82.5,89.5C 80.04,87.4831 80.3733,85.6498 83.5,84C 82.6634,82.9887 82.33,81.8221 82.5,80.5C 83.5,80.5 84.5,80.5 85.5,80.5C 84.4645,75.6589 85.1312,70.9922 87.5,66.5C 86.7765,61.7763 84.1099,59.1096 79.5,58.5C 79.0833,55.9208 79.75,53.7542 81.5,52C 79.8988,51.7266 78.3988,51.2266 77,50.5C 76.2389,47.9471 75.4056,45.4471 74.5,43C 76.7972,42.9822 79.1305,43.1489 81.5,43.5 Z"/></g>
<g><path style="opacity:0.094" fill="#d6d5d4" d="M 135.5,50.5 C 138.912,55.5515 141.079,61.2182 142,67.5C 145.655,85.2579 142.988,101.925 134,117.5C 129.795,122.887 124.628,126.887 118.5,129.5C 116.565,130.15 114.565,130.483 112.5,130.5C 112.5,130.167 112.5,129.833 112.5,129.5C 129.956,122.965 139.456,110.298 141,91.5C 141.667,84.8333 141.667,78.1667 141,71.5C 139.478,64.3817 137.645,57.3817 135.5,50.5 Z"/></g>
<g><path style="opacity:0.314" fill="#a6a4a2" d="M 4.5,94.5 C 5.7682,96.9052 6.43487,99.5718 6.5,102.5C 5.83333,101.5 5.16667,100.5 4.5,99.5C 4.5,99.1667 4.5,98.8333 4.5,98.5C 4.5,97.1667 4.5,95.8333 4.5,94.5 Z"/></g>
<g><path style="opacity:0.992" fill="#4c3518" d="M 82.5,89.5 C 82.5086,91.3084 82.0086,92.9751 81,94.5C 76.1015,100.18 70.6015,100.847 64.5,96.5C 63.9862,94.6336 63.3195,92.8003 62.5,91C 62.8333,90.5 63.1667,90 63.5,89.5C 65.1275,95.9823 69.1275,98.4823 75.5,97C 77.982,94.4475 80.3153,91.9475 82.5,89.5 Z"/></g>
<g><path style="opacity:1" fill="#f7970e" d="M 18.5,59.5 C 16.7592,64.0079 15.2592,68.6746 14,73.5C 12.3735,86.1935 13.7069,98.5268 18,110.5C 20.8593,115.559 23.6926,120.559 26.5,125.5C 24.7446,124.928 23.0779,124.094 21.5,123C 11.9897,114.325 6.9897,103.492 6.5,90.5C 6.45696,81.4355 7.12362,72.4355 8.5,63.5C 8.5,62.8333 8.83333,62.5 9.5,62.5C 10.793,61.158 11.6264,59.4913 12,57.5C 15.1362,55.836 16.3029,53.1693 15.5,49.5C 16.8333,49.5 18.1667,49.5 19.5,49.5C 19.5379,52.1813 18.8713,54.6813 17.5,57C 17.7432,57.9021 18.0766,58.7354 18.5,59.5 Z"/></g>
<g><path style="opacity:1" fill="#fdb052" d="M 8.5,83.5 C 11.2869,87.7839 11.9535,92.4505 10.5,97.5C 8.78319,93.0093 8.11653,88.3426 8.5,83.5 Z"/></g>
<g><path style="opacity:1" fill="#fd8205" d="M 95.5,98.5 C 96.1667,98.8333 96.8333,99.1667 97.5,99.5C 97.425,106.214 96.0917,112.548 93.5,118.5C 93.5,117.833 93.5,117.167 93.5,116.5C 93.3877,110.274 94.0543,104.274 95.5,98.5 Z"/></g>
<g><path style="opacity:1" fill="#feb767" d="M 91.5,116.5 C 85.6443,120.691 79.311,121.524 72.5,119C 71.6433,118.311 70.9767,117.478 70.5,116.5C 76.5553,114.576 82.222,111.91 87.5,108.5C 92.3458,109.369 93.6791,112.035 91.5,116.5 Z"/></g>
<g><path style="opacity:0.941" fill="#4d3d2c" d="M 96.5,28.5 C 104.291,30.4099 111.958,32.9099 119.5,36C 125.653,39.9886 130.986,44.8219 135.5,50.5C 137.645,57.3817 139.478,64.3817 141,71.5C 141.667,78.1667 141.667,84.8333 141,91.5C 139.456,110.298 129.956,122.965 112.5,129.5C 111.833,129.5 111.167,129.5 110.5,129.5C 126.613,123.302 136.113,111.635 139,94.5C 139.891,84.7722 139.557,75.1055 138,65.5C 136.035,56.2204 131.535,48.5538 124.5,42.5C 117.307,35.5456 108.641,32.5456 98.5,33.5C 100.129,31.8041 99.7957,30.8041 97.5,30.5C 97.1667,29.8333 96.8333,29.1667 96.5,28.5 Z"/></g>
<g><path style="opacity:1" fill="#fc7c04" d="M 53.5,117.5 C 52.5028,117.47 51.8361,117.97 51.5,119C 51.9891,120.138 52.3225,121.305 52.5,122.5C 50.2065,120.524 48.5398,118.024 47.5,115C 45.8589,111.655 45.3589,108.155 46,104.5C 47.4877,109.483 49.9877,113.816 53.5,117.5 Z"/></g>
<g><path style="opacity:1" fill="#fa7704" d="M 54.5,119.5 C 65.7306,126.799 77.3972,127.466 89.5,121.5C 88.0869,124.661 86.4203,127.661 84.5,130.5C 83.2905,130.932 82.2905,131.599 81.5,132.5C 80.7375,133.268 79.7375,133.768 78.5,134C 74.8484,134.499 71.1817,134.665 67.5,134.5C 67.1667,134.5 66.8333,134.5 66.5,134.5C 63.8987,133.199 61.232,131.866 58.5,130.5C 56.9144,126.982 55.5811,123.315 54.5,119.5 Z"/></g>
<g><path style="opacity:1" fill="#cf5108" d="M 53.5,117.5 C 53.8333,118.167 54.1667,118.833 54.5,119.5C 55.5811,123.315 56.9144,126.982 58.5,130.5C 57.8333,130.5 57.1667,130.5 56.5,130.5C 55.6743,127.515 54.341,124.849 52.5,122.5C 52.3225,121.305 51.9891,120.138 51.5,119C 51.8361,117.97 52.5028,117.47 53.5,117.5 Z"/></g>
<g><path style="opacity:1" fill="#d25308" d="M 91.5,116.5 C 92.1667,116.5 92.8333,116.5 93.5,116.5C 93.5,117.167 93.5,117.833 93.5,118.5C 90.9922,122.182 88.9922,126.182 87.5,130.5C 86.5,130.5 85.5,130.5 84.5,130.5C 86.4203,127.661 88.0869,124.661 89.5,121.5C 90.1667,119.833 90.8333,118.167 91.5,116.5 Z"/></g>
<g><path style="opacity:0.996" fill="#9e5411" d="M 26.5,125.5 C 28.0269,125.427 29.0269,126.094 29.5,127.5C 28.8333,127.5 28.1667,127.5 27.5,127.5C 27.1667,126.833 26.8333,126.167 26.5,125.5 Z"/></g>
<g><path style="opacity:1" fill="#f97604" d="M 93.5,118.5 C 93.0371,121.482 92.7038,124.482 92.5,127.5C 98.3142,127.296 103.981,126.296 109.5,124.5C 106.833,126.833 104.167,129.167 101.5,131.5C 96.8333,131.5 92.1667,131.5 87.5,131.5C 87.5,131.167 87.5,130.833 87.5,130.5C 88.9922,126.182 90.9922,122.182 93.5,118.5 Z"/></g>
<g><path style="opacity:1" fill="#f77605" d="M 52.5,122.5 C 54.341,124.849 55.6743,127.515 56.5,130.5C 52.2648,131.436 47.9315,131.769 43.5,131.5C 41.5,129.833 39.5,128.167 37.5,126.5C 41.9808,128.382 46.6475,128.882 51.5,128C 52.4061,126.301 52.7394,124.467 52.5,122.5 Z"/></g>
<g><path style="opacity:0.639" fill="#7c7168" d="M 27.5,127.5 C 28.1667,127.5 28.8333,127.5 29.5,127.5C 31.5,128.5 33.5,129.5 35.5,130.5C 32.1889,130.693 29.5223,129.693 27.5,127.5 Z"/></g>
<g><path style="opacity:0.094" fill="#d8d7d7" d="M 4.5,99.5 C 5.16667,100.5 5.83333,101.5 6.5,102.5C 9.60685,114.26 16.6069,122.594 27.5,127.5C 29.5223,129.693 32.1889,130.693 35.5,130.5C 36.1667,130.5 36.8333,130.5 37.5,130.5C 39.2646,131.461 41.2646,131.795 43.5,131.5C 47.2984,132.483 51.2984,132.817 55.5,132.5C 50.3595,133.488 45.0262,133.821 39.5,133.5C 26.4145,131.926 16.2478,125.592 9,114.5C 8.43629,110.873 6.93629,107.707 4.5,105C 3.87531,103.36 3.87531,101.527 4.5,99.5 Z"/></g>
<g><path style="opacity:0.663" fill="#9c6f47" d="M 84.5,130.5 C 85.5,130.5 86.5,130.5 87.5,130.5C 87.5,130.833 87.5,131.167 87.5,131.5C 86.209,131.263 85.209,131.596 84.5,132.5C 84.1667,132.5 83.8333,132.5 83.5,132.5C 82.8333,132.5 82.1667,132.5 81.5,132.5C 82.2905,131.599 83.2905,130.932 84.5,130.5 Z"/></g>
<g><path style="opacity:0.314" fill="#a79587" d="M 56.5,130.5 C 57.1667,130.5 57.8333,130.5 58.5,130.5C 61.232,131.866 63.8987,133.199 66.5,134.5C 62.8993,133.537 59.2326,132.87 55.5,132.5C 51.2984,132.817 47.2984,132.483 43.5,131.5C 47.9315,131.769 52.2648,131.436 56.5,130.5 Z"/></g>
<g><path style="opacity:0.314" fill="#a69b91" d="M 108.5,129.5 C 109.167,129.5 109.833,129.5 110.5,129.5C 111.167,129.5 111.833,129.5 112.5,129.5C 112.5,129.833 112.5,130.167 112.5,130.5C 103.42,133.454 94.0868,134.121 84.5,132.5C 85.209,131.596 86.209,131.263 87.5,131.5C 92.1667,131.5 96.8333,131.5 101.5,131.5C 104.152,131.59 106.485,130.924 108.5,129.5 Z"/></g>
<g><path style="opacity:0.031" fill="#f3f3f3" d="M 118.5,129.5 C 114.905,131.649 110.905,133.149 106.5,134C 95.7757,133.793 85.2757,134.96 75,137.5C 72.199,137.446 69.3657,137.446 66.5,137.5C 63.5,136.167 60.5,134.833 57.5,133.5C 51.3708,134.809 45.3708,134.809 39.5,133.5C 45.0262,133.821 50.3595,133.488 55.5,132.5C 59.2326,132.87 62.8993,133.537 66.5,134.5C 66.8333,134.5 67.1667,134.5 67.5,134.5C 71.3112,135.645 75.3112,135.812 79.5,135C 81.3197,134.8 82.653,133.966 83.5,132.5C 83.8333,132.5 84.1667,132.5 84.5,132.5C 94.0868,134.121 103.42,133.454 112.5,130.5C 114.565,130.483 116.565,130.15 118.5,129.5 Z"/></g>
<g><path style="opacity:0.584" fill="#9a9693" d="M 81.5,132.5 C 82.1667,132.5 82.8333,132.5 83.5,132.5C 82.653,133.966 81.3197,134.8 79.5,135C 75.3112,135.812 71.3112,135.645 67.5,134.5C 71.1817,134.665 74.8484,134.499 78.5,134C 79.7375,133.768 80.7375,133.268 81.5,132.5 Z"/></g>
</svg>
